<svg id="visual" viewBox="0 0 960 540" width="960" height="540" xmlns="http://www.w3.org/2000/svg" xmlns:xlink="http://www.w3.org/1999/xlink" version="1.1"><rect x="0" y="0" width="960" height="540" fill="#58a5c1"></rect><path d="M0 235L26.7 239.7C53.3 244.3 106.7 253.7 160 271.7C213.3 289.7 266.7 316.3 320 308.5C373.3 300.7 426.7 258.3 480 241C533.3 223.7 586.7 231.3 640 242.8C693.3 254.3 746.7 269.7 800 267C853.3 264.3 906.7 243.7 933.3 233.3L960 223L960 541L933.3 541C906.7 541 853.3 541 800 541C746.7 541 693.3 541 640 541C586.7 541 533.3 541 480 541C426.7 541 373.3 541 320 541C266.7 541 213.3 541 160 541C106.7 541 53.3 541 26.7 541L0 541Z" fill="#5683b7"></path><path d="M0 300L26.7 301.2C53.3 302.3 106.7 304.7 160 306C213.3 307.3 266.7 307.7 320 316.8C373.3 326 426.7 344 480 354.3C533.3 364.7 586.7 367.3 640 365.8C693.3 364.3 746.7 358.7 800 352.2C853.3 345.7 906.7 338.3 933.3 334.7L960 331L960 541L933.3 541C906.7 541 853.3 541 800 541C746.7 541 693.3 541 640 541C586.7 541 533.3 541 480 541C426.7 541 373.3 541 320 541C266.7 541 213.3 541 160 541C106.7 541 53.3 541 26.7 541L0 541Z" fill="#60a4c2"></path><path d="M0 416L26.7 413.7C53.3 411.3 106.7 406.7 160 399.5C213.3 392.3 266.7 382.7 320 372.2C373.3 361.7 426.7 350.3 480 343.8C533.3 337.3 586.7 335.7 640 348.3C693.3 361 746.7 388 800 396.5C853.3 405 906.7 395 933.3 390L960 385L960 541L933.3 541C906.7 541 853.3 541 800 541C746.7 541 693.3 541 640 541C586.7 541 533.3 541 480 541C426.7 541 373.3 541 320 541C266.7 541 213.3 541 160 541C106.7 541 53.3 541 26.7 541L0 541Z" fill="#86c1c8"></path><path d="M0 440L26.7 435.3C53.3 430.7 106.7 421.3 160 425.2C213.3 429 266.7 446 320 451.8C373.3 457.7 426.7 452.3 480 446.7C533.3 441 586.7 435 640 433.3C693.3 431.7 746.7 434.3 800 436.2C853.3 438 906.7 439 933.3 439.5L960 440L960 541L933.3 541C906.7 541 853.3 541 800 541C746.7 541 693.3 541 640 541C586.7 541 533.3 541 480 541C426.7 541 373.3 541 320 541C266.7 541 213.3 541 160 541C106.7 541 53.3 541 26.7 541L0 541Z" fill="#b7dcd2"></path><path d="M0 463L26.7 462.3C53.3 461.7 106.7 460.3 160 465.8C213.3 471.3 266.7 483.7 320 490.7C373.3 497.7 426.7 499.3 480 492.5C533.3 485.7 586.7 470.3 640 471.2C693.3 472 746.7 489 800 490.3C853.3 491.7 906.7 477.3 933.3 470.2L960 463L960 541L933.3 541C906.7 541 853.3 541 800 541C746.7 541 693.3 541 640 541C586.7 541 533.3 541 480 541C426.7 541 373.3 541 320 541C266.7 541 213.3 541 160 541C106.7 541 53.3 541 26.7 541L0 541Z" fill="#e8f5e9"></path></svg>